<svg version="1.1" xmlns="http://www.w3.org/2000/svg" viewBox="0 0 187.24826604951477 187.79111228243164" width="187.24826604951477" height="187.79111228243164">
  <!-- svg-source:excalidraw -->
  
  <defs>
    <style class="style-fonts">
      @font-face {
        font-family: "Virgil";
        src: url("https://excalidraw.com/Virgil.woff2");
      }
      @font-face {
        font-family: "Cascadia";
        src: url("https://excalidraw.com/Cascadia.woff2");
      }
      @font-face {
        font-family: "Assistant";
        src: url("https://excalidraw.com/Assistant-Regular.woff2");
      }
    </style>
    
  </defs>
  <g stroke-linecap="round" transform="translate(10 10) rotate(0 83.62413302475738 83.89555614121582)"><path d="M32 0 C56.77 -2.85, 84.29 1.69, 135.25 0 C156.62 -0.83, 162.42 11.13, 167.25 32 C173.36 54.23, 169.83 75.37, 167.25 135.79 C162.02 155.8, 153.42 165.31, 135.25 167.79 C110.13 170.24, 89.13 173.96, 32 167.79 C13.42 170, -5.34 162.54, 0 135.79 C-3.4 108.78, 3.7 85.49, 0 32 C-1.89 7.1, 14.07 -3.96, 32 0" stroke="none" stroke-width="0" fill="#555555"></path><path d="M32 0 C71.47 -1.34, 102.38 -0.12, 135.25 0 M32 0 C55.72 -0.69, 78.72 -0.17, 135.25 0 M135.25 0 C158.01 -2.59, 167.71 9.21, 167.25 32 M135.25 0 C160.13 -0.84, 168.3 8.34, 167.25 32 M167.25 32 C166.56 65.35, 168.85 87.06, 167.25 135.79 M167.25 32 C165.82 59.48, 166.34 90.94, 167.25 135.79 M167.25 135.79 C167.68 160.19, 156.03 170.36, 135.25 167.79 M167.25 135.79 C163.1 160.11, 153.08 167.48, 135.25 167.79 M135.25 167.79 C101.63 171.27, 67.43 168.56, 32 167.79 M135.25 167.79 C98.08 170.44, 61.26 168.46, 32 167.79 M32 167.79 C13.86 168.54, -2.21 158.99, 0 135.79 M32 167.79 C11.23 165.49, 3.74 154.59, 0 135.79 M0 135.79 C-0.51 99.98, 2.06 70.36, 0 32 M0 135.79 C0.9 104.64, 1.31 78.97, 0 32 M0 32 C2.73 12.29, 12.61 -0.05, 32 0 M0 32 C-3.78 12.93, 7.6 -1.97, 32 0" stroke="#1e1e1e" stroke-width="4" fill="none"></path></g><g stroke-linecap="round"><g transform="translate(53.35779726602186 53.03837465615379) rotate(0 32.8853781376522 -18.076068777649652)"><path d="M2.47 -1.54 C5.58 -4.14, 8.81 -9.49, 18.99 -14.87 C29.17 -20.24, 55.77 -30.66, 63.56 -33.81 M0.37 3.8 C3.02 0.28, 4.96 -12.24, 16.43 -19.22 C27.9 -26.2, 60.88 -34.86, 69.19 -38.07" stroke="#1e1e1e" stroke-width="4" fill="none"></path></g></g><mask></mask><g stroke-linecap="round"><g transform="translate(64.7389007474203 43.81233546065596) rotate(0 46.046647025921175 60.76172516824499)" fill-rule="evenodd"><path d="M-3.05 2.28 C-2.85 6.38, 0.24 20.01, 3.26 26.32 C6.29 32.63, 14.11 34.48, 15.1 40.15 C16.09 45.81, 6.62 56.41, 9.2 60.3 C11.78 64.2, 28.73 61.33, 30.6 63.53 C32.47 65.72, 24.41 68.43, 20.44 73.46 C16.47 78.5, 8.03 85.24, 6.79 93.74 C5.54 102.24, 9.8 121.58, 12.97 124.48 C16.13 127.38, 20.95 117.2, 25.77 111.14 C30.58 105.08, 37.98 88.56, 41.88 88.14 C45.78 87.72, 43.52 102.55, 49.18 108.61 C54.84 114.67, 71.65 125.22, 75.84 124.51 C80.03 123.8, 77.7 111.56, 74.3 104.36 C70.9 97.16, 56.93 87.91, 55.45 81.29 C53.98 74.66, 59.02 65.55, 65.46 64.62 C71.9 63.7, 89.57 75.33, 94.11 75.75 C98.65 76.17, 96.63 69.67, 92.72 67.13 C88.81 64.6, 73.85 62.97, 70.64 60.52 C67.44 58.06, 75.89 58.09, 73.5 52.41 C71.1 46.74, 60.52 31.19, 56.25 26.46 C51.98 21.73, 48.24 26.98, 47.86 24.05 C47.49 21.12, 54.36 13.62, 54 8.88 C53.64 4.15, 49.6 -3.59, 45.71 -4.36 C41.82 -5.13, 32.98 0.05, 30.66 4.25 C28.35 8.44, 33.78 18.42, 31.83 20.81 C29.87 23.2, 22.59 20.4, 18.95 18.57 C15.32 16.74, 11.57 13.17, 10.03 9.84 C8.48 6.51, 11.83 0.84, 9.69 -1.41 C7.55 -3.65, -0.4 -3.43, -2.79 -3.62" stroke="none" stroke-width="0" fill="#ced4da" fill-rule="evenodd"></path><path d="M-1.27 -0.7 C-0.77 2.98, -2.32 15.46, 0.23 22.18 C2.78 28.9, 11.92 33.45, 14.04 39.6 C16.15 45.75, 10.51 55.6, 12.93 59.09 C15.36 62.58, 26.62 57.92, 28.56 60.54 C30.5 63.16, 27.92 69.65, 24.57 74.84 C21.22 80.02, 9.82 83.26, 8.48 91.66 C7.14 100.05, 13.61 122.82, 16.52 125.21 C19.44 127.59, 21.84 111.24, 25.99 105.96 C30.13 100.68, 36.81 92.43, 41.39 93.51 C45.98 94.58, 48.59 106.92, 53.5 112.4 C58.41 117.88, 67.9 127.88, 70.87 126.39 C73.85 124.9, 73.98 111.19, 71.34 103.48 C68.7 95.76, 57.03 86.83, 55.04 80.1 C53.05 73.37, 53.5 63.76, 59.41 63.07 C65.31 62.39, 85.4 75.59, 90.49 75.97 C95.58 76.36, 93.56 68.32, 89.94 65.39 C86.32 62.46, 71.35 60.49, 68.78 58.37 C66.22 56.26, 76.64 57.26, 74.55 52.7 C72.47 48.13, 60.52 35.74, 56.28 30.98 C52.04 26.23, 48.87 27.2, 49.1 24.17 C49.34 21.13, 58.37 16.84, 57.68 12.79 C56.98 8.73, 49.64 0.74, 44.93 -0.15 C40.22 -1.04, 32.35 3.81, 29.43 7.47 C26.51 11.13, 28.84 19.36, 27.43 21.81 C26.02 24.27, 24.45 23.92, 20.99 22.2 C17.53 20.47, 8.94 16.15, 6.67 11.48 C4.4 6.81, 8.17 -3.73, 7.36 -5.84 C6.56 -7.96, 2.9 -1.89, 1.84 -1.21 M3.24 -3.54 C4.88 0.37, 4.15 17.91, 5.58 24.37 C7.01 30.84, 10.38 28.95, 11.81 35.23 C13.24 41.52, 10.64 57.8, 14.15 62.09 C17.67 66.38, 31.89 58.04, 32.92 60.99 C33.95 63.94, 24.15 73.99, 20.31 79.8 C16.47 85.6, 10.83 88.55, 9.87 95.8 C8.91 103.06, 12.39 120.96, 14.56 123.33 C16.73 125.69, 18.05 114.9, 22.9 109.98 C27.76 105.06, 38.39 92.99, 43.69 93.78 C48.98 94.58, 49.36 109.43, 54.69 114.74 C60.01 120.06, 72.7 127.96, 75.64 125.67 C78.57 123.37, 76 108.55, 72.3 100.96 C68.61 93.36, 55.71 86.6, 53.46 80.1 C51.22 73.59, 52.48 62.09, 58.85 61.95 C65.23 61.81, 87.07 78.62, 91.7 79.26 C96.33 79.9, 89.64 69.15, 86.63 65.77 C83.62 62.4, 76.09 60.97, 73.66 59.01 C71.22 57.05, 74.88 59.14, 72.03 54.01 C69.17 48.88, 60.79 32.33, 56.53 28.23 C52.27 24.13, 46.16 32.47, 46.48 29.41 C46.8 26.36, 58.68 15.12, 58.46 9.91 C58.24 4.71, 50.65 -1.09, 45.16 -1.8 C39.67 -2.51, 27.92 1.71, 25.49 5.64 C23.07 9.57, 32.15 19.02, 30.62 21.8 C29.08 24.58, 19.78 23.95, 16.3 22.31 C12.82 20.66, 11.95 17.29, 9.72 11.94 C7.5 6.6, 3.98 -8.07, 2.94 -9.77 C1.89 -11.47, 4.41 -0.33, 3.45 1.73" stroke="#1e1e1e" stroke-width="4" fill="none"></path></g></g><mask></mask></svg>